HIERARCHY
ROOT Hips
{
	OFFSET 0.00 0.00 0.00
	CHANNELS 6 Xposition Yposition Zposition Xrotation Yrotation Zrotation
	JOINT RightUpLeg
	{
		OFFSET -4.47808 0.00000 0.00000
		CHANNELS 3 Xrotation Yrotation Zrotation
		JOINT RightLeg
		{
			OFFSET 0.00000 -16.40577 0.00000
			CHANNELS 3 Xrotation Yrotation Zrotation
			JOINT RightFoot
			{
				OFFSET 0.00000 -14.64414 0.00000
				CHANNELS 3 Xrotation Yrotation Zrotation
				JOINT RightToeBase
				{
					OFFSET 0.00000 -1.50274 5.60831
					CHANNELS 3 Xrotation Yrotation Zrotation
					End Site
					{
						OFFSET 0.00000 0.00000 2.95275
					}
				}
			}
		}
	}
	JOINT LeftUpLeg
	{
		OFFSET 4.47808 0.00000 0.00000
		CHANNELS 3 Xrotation Yrotation Zrotation
		JOINT LeftLeg
		{
			OFFSET 0.00000 -16.40577 0.00000
			CHANNELS 3 Xrotation Yrotation Zrotation
			JOINT LeftFoot
			{
				OFFSET 0.00000 -14.64414 0.00000
				CHANNELS 3 Xrotation Yrotation Zrotation
				JOINT LeftToeBase
				{
					OFFSET 0.00000 -1.50274 5.60831
					CHANNELS 3 Xrotation Yrotation Zrotation
					End Site
					{
						OFFSET 0.00000 0.00000 2.95275
					}
				}
			}
		}
	}
	JOINT Spine
	{
		OFFSET 0.00000 6.06821 0.00000
		CHANNELS 3 Xrotation Yrotation Zrotation
		JOINT RightShoulder
		{
			OFFSET 0.00000 10.01392 0.00000
			CHANNELS 3 Xrotation Yrotation Zrotation
			JOINT RightArm
			{
				OFFSET -7.19022 0.00000 0.00000
				CHANNELS 3 Xrotation Yrotation Zrotation
				JOINT RightForeArm
				{
					OFFSET -10.17747 0.00000 0.00000
					CHANNELS 3 Yrotation Zrotation Xrotation
					JOINT RightHand
					{
						OFFSET -8.39211 0.00000 0.00000
						CHANNELS 3 Xrotation Yrotation Zrotation
						End Site
						{
							OFFSET -3.93700 0.00000 0.00000
						}
						JOINT RightHandThumb1
						{
							OFFSET 0.00000 0.00000 0.00000
							CHANNELS 3 Xrotation Zrotation Yrotation
							End Site
							{
								OFFSET 0.00000 0.00000 3.93700
							}
						}
					}
				}
			}
		}
		JOINT LeftShoulder
		{
			OFFSET 0.00000 10.01392 0.00000
			CHANNELS 3 Xrotation Yrotation Zrotation
			JOINT LeftArm
			{
				OFFSET 7.19022 0.00000 0.00000
				CHANNELS 3 Xrotation Yrotation Zrotation
				JOINT LeftForeArm
				{
					OFFSET 10.17747 0.00000 0.00000
					CHANNELS 3 Yrotation Zrotation Xrotation
					JOINT LeftHand
					{
						OFFSET 8.39211 0.00000 0.00000
						CHANNELS 3 Xrotation Yrotation Zrotation
						End Site
						{
							OFFSET 3.93700 0.00000 0.00000
						}
						JOINT LeftHandThumb1
						{
							OFFSET 0.00000 0.00000 0.00000
							CHANNELS 3 Xrotation Zrotation Yrotation
							End Site
							{
								OFFSET 0.00000 0.00000 3.93700
							}
						}
					}
				}
			}
		}
		JOINT Head
		{
			OFFSET 0.00000 15.77748 0.00000
			CHANNELS 3 Xrotation Yrotation Zrotation
			End Site
			{
				OFFSET 0.00000 4.52755 0.00000
			}
		}
	}
}
MOTION
Frames: 20
Frame Time: 0.008333
 0.0716 28.0174 5.2593 -4.4845 37.0751 -6.4944 -84.4506 -5.6264 -1.0386 40.7550 -0.0000 0.0000 15.9939 11.2940 14.0481 15.9904 -0.0000 0.0000 -35.9871 -16.9215 -11.5914 72.2521 -0.0000 0.0000 -34.7098 11.1945 4.3889 7.7171 -0.0000 -0.0000 36.5058 -12.1592 10.3031 17.7238 -20.0479 -10.0127 -15.4725 -4.7329 58.3854 72.1320 0.0000 18.4688 13.9643 14.9920 -43.8688 32.8623 0.0000 -24.3270 -19.9288 4.3687 39.0867 -60.2168 -3.2266 -44.3837 -44.4686 -0.0000 -0.3984 -0.2470 1.9165 7.3464 33.1476 -0.0000 26.2537 -3.3752 -19.2063 -7.2375
 0.0349 28.0470 5.4211 -4.8066 38.1057 -6.2375 -84.4963 -7.7650 1.4305 43.9454 -0.0000 0.0000 16.1545 13.9370 16.0867 15.7439 -0.0000 -0.0000 -35.5353 -17.1369 -11.4135 72.2775 0.0000 -0.0000 -34.7250 10.3273 3.7848 7.3492 0.0000 -0.0000 36.6968 -13.1379 10.4253 18.5861 -20.4668 -9.6070 -14.0900 -4.2185 59.1700 74.1771 0.0000 18.2542 13.8810 15.0090 -43.6590 32.8623 0.0000 -24.3270 -19.8486 4.0106 39.0775 -60.8263 -3.2040 -46.6939 -48.0310 -0.0000 0.9608 -0.2972 2.4171 7.0113 33.1476 -0.0000 26.2537 -3.0532 -18.6639 -7.3034
 0.0184 28.0980 5.5944 -5.1783 39.0219 -6.0573 -84.0943 -9.7399 4.1828 46.7461 -0.0000 -0.0000 15.6612 16.1059 18.0188 15.1147 -0.0000 0.0000 -34.9294 -17.3703 -11.1011 72.2152 -0.0000 -0.0000 -34.7289 9.5264 3.2799 6.8768 -0.0000 -0.0000 36.8896 -13.9348 10.6886 19.3360 -20.8531 -9.3874 -12.8025 -3.6164 60.0749 76.1160 0.0000 18.3466 14.0509 15.2313 -43.6103 32.8623 0.0000 -24.3270 -19.7803 3.6953 38.8114 -61.0774 -3.2838 -49.0261 -51.8380 -0.0000 2.5068 -0.2866 2.5675 6.3706 33.1476 -0.0000 26.2537 -2.7591 -18.1331 -7.5085
 0.0105 28.1629 5.7730 -5.4477 39.8161 -6.1302 -83.3362 -11.9522 7.1695 49.0746 -0.0000 -0.0000 14.8432 17.8255 19.2302 14.9867 0.0000 -0.0000 -34.2899 -17.5781 -10.5244 72.1353 -0.0000 0.0000 -34.8796 8.8596 2.8918 6.6184 -0.0000 0.0000 37.0242 -14.5945 11.2500 19.9622 -21.2055 -9.3671 -11.3304 -2.6805 60.8318 78.3982 0.0000 18.1997 13.6308 15.0851 -42.9769 32.8623 0.0000 -24.3270 -19.8859 3.4521 38.2685 -61.0169 -3.1760 -51.4573 -55.8160 -0.0000 4.0544 -0.2219 2.6166 4.8495 33.1476 -0.0000 26.2537 -2.7943 -17.5437 -8.2198
 0.0043 28.2469 5.9619 -5.7361 40.5201 -6.2702 -82.1471 -14.0762 10.4413 50.9118 0.0000 -0.0000 13.9297 18.6895 20.3163 14.7985 -0.0000 0.0000 -33.5413 -17.6943 -9.7444 72.0011 0.0000 0.0000 -34.9595 8.0953 2.5909 6.2356 -0.0000 0.0000 37.1546 -15.0183 11.7735 20.4837 -21.5995 -9.3502 -10.1447 -1.8069 61.7948 80.4526 0.0000 18.7640 13.0385 14.8615 -42.0785 32.8623 0.0000 -24.3270 -20.0395 3.1335 37.8181 -60.7524 -2.7843 -54.2516 -59.9864 -0.0000 6.3684 -0.2168 3.1570 3.9311 33.1476 -0.0000 26.2537 -2.9281 -17.0700 -8.7367
 0.0118 28.3386 6.1567 -6.0477 41.1488 -6.3688 -80.6396 -15.8782 13.9175 52.2937 -0.0000 0.0000 13.2953 18.3437 22.2604 14.5935 0.0000 0.0000 -32.7300 -17.8628 -9.0050 71.7922 -0.0000 0.0000 -35.0555 7.3990 2.1262 5.9516 0.0000 -0.0000 37.2072 -15.3519 12.1876 20.8431 -21.9501 -9.3982 -8.9375 -0.8255 62.7436 82.3646 0.0000 19.3318 12.7357 14.9682 -41.1880 32.8623 0.0000 -24.3270 -20.2357 2.7662 37.2170 -60.1809 -2.6831 -57.0721 -64.1581 -0.0000 8.7281 -0.1716 3.7605 2.6138 33.1476 -0.0000 26.2537 -2.9915 -16.6589 -9.0930
 0.0269 28.4360 6.3542 -6.3050 41.7775 -6.4119 -79.0343 -17.1958 17.4864 53.3188 0.0000 0.0000 12.9819 17.2846 24.6066 14.1795 -0.0000 -0.0000 -31.9452 -17.9733 -8.3363 71.5066 -0.0000 -0.0000 -35.0917 6.7214 1.7498 5.6034 -0.0000 0.0000 37.2004 -15.7815 12.4741 21.2002 -22.1935 -9.3201 -7.9539 0.1560 63.5164 84.2728 0.0000 19.4927 12.7210 15.6386 -39.9438 32.8623 0.0000 -24.3270 -20.6127 2.3358 36.7726 -59.1248 -2.3857 -60.0494 -68.3327 -0.0000 11.1206 -0.0857 4.0238 1.2214 33.1476 -0.0000 26.2537 -3.2111 -16.3430 -9.3063
 0.0559 28.5330 6.5473 -6.5176 42.4965 -6.3002 -77.5147 -17.9046 20.9381 54.1339 -0.0000 0.0000 12.8985 15.9864 26.9087 13.4553 -0.0000 0.0000 -31.2308 -17.9974 -7.8641 71.1487 -0.0000 0.0000 -35.0126 6.0121 1.3297 5.2016 -0.0000 -0.0000 37.1109 -16.3690 12.5957 21.3532 -22.4199 -9.3015 -6.9511 1.3408 64.3215 86.0556 0.0000 20.1905 12.0820 15.6685 -38.3997 32.8623 0.0000 -24.3270 -21.0099 1.8854 36.3793 -57.8766 -2.0644 -63.1041 -72.3737 -0.0000 13.8228 0.0674 4.1822 -0.9242 33.1476 -0.0000 26.2537 -3.4578 -16.1090 -9.3030
 0.0961 28.6287 6.7431 -6.6559 43.4175 -6.1469 -76.1743 -18.1776 24.1150 54.7578 0.0000 -0.0000 13.0336 14.7983 29.4224 12.8901 -0.0000 0.0000 -30.6394 -18.1380 -7.6211 70.7815 0.0000 0.0000 -34.8739 5.4190 0.9894 4.8375 0.0000 -0.0000 36.9278 -17.1754 12.7504 21.5444 -22.6060 -9.3045 -6.0993 2.6941 65.1007 87.7461 0.0000 20.6280 11.7549 15.3569 -38.1582 32.8623 0.0000 -24.3270 -21.0963 1.7144 35.8556 -56.7934 -2.1159 -66.1916 -76.1889 -0.0000 16.3766 0.1493 4.6667 -1.8340 33.1476 -0.0000 26.2537 -3.6308 -15.8191 -9.2474
 0.1479 28.7251 6.9354 -6.6842 44.6230 -5.9370 -75.1438 -17.9982 26.8656 55.2461 0.0000 -0.0000 13.2995 14.1720 31.2427 12.5470 -0.0000 -0.0000 -30.1895 -18.3123 -7.5909 70.3415 -0.0000 -0.0000 -34.6424 4.7385 0.7457 4.5417 0.0000 0.0000 36.6625 -18.2277 12.9125 21.6852 -22.8319 -9.2981 -5.4518 4.0684 65.8281 89.3040 0.0000 20.3882 11.5400 15.8440 -36.7911 32.8623 0.0000 -24.3270 -21.0228 1.6501 35.2494 -55.8284 -2.3586 -69.2690 -79.6877 -0.0000 18.9289 0.2358 4.8963 -2.7607 33.1476 -0.0000 26.2537 -3.8051 -15.4979 -9.0362
 0.2128 28.8235 7.1204 -6.6160 46.1590 -5.5774 -74.4307 -17.4447 29.0873 55.6725 0.0000 0.0000 13.6442 14.1423 32.3789 12.4817 -0.0000 0.0000 -29.9070 -18.4605 -7.8802 69.7984 0.0000 -0.0000 -34.1990 4.0712 0.6942 4.0051 -0.0000 0.0000 36.3162 -19.7365 13.0037 21.6982 -22.8720 -9.3641 -4.7423 5.6784 66.5314 90.6909 0.0000 20.3367 11.4239 15.5634 -36.9847 32.8623 0.0000 -24.3270 -21.0558 1.5251 34.6517 -54.5682 -2.8252 -72.2485 -82.9872 -0.0000 21.3520 0.3594 5.2877 -3.8939 33.1476 -0.0000 26.2537 -3.8433 -15.1172 -8.6538
 0.2817 28.9179 7.2941 -6.3492 48.1217 -5.2116 -74.0745 -16.6948 30.6611 56.0397 0.0000 0.0000 14.0052 14.7339 32.7442 12.5559 -0.0000 -0.0000 -29.8831 -18.7020 -8.4531 69.1828 0.0000 -0.0000 -33.6476 3.3334 0.7117 3.5878 -0.0000 -0.0000 35.8071 -21.6260 13.1023 21.7600 -22.8715 -9.4107 -4.1424 7.4274 67.1750 91.9005 0.0000 20.2196 11.4633 15.5436 -37.1164 32.8623 0.0000 -24.3270 -21.1149 1.3550 34.0521 -53.2360 -3.5270 -75.2457 -85.8412 -0.0000 23.5033 0.4683 5.5444 -4.8354 33.1476 -0.0000 26.2537 -3.6538 -14.7456 -8.0777
 0.3604 29.0087 7.4648 -5.8945 50.4470 -4.9342 -74.0197 -15.7897 31.7474 56.3261 0.0000 0.0000 14.4031 15.4427 32.7557 12.7953 -0.0000 -0.0000 -30.0300 -18.9196 -9.1418 68.5785 0.0000 0.0000 -33.0394 2.5675 0.7366 3.0092 0.0000 -0.0000 35.1892 -23.9541 13.3778 21.7746 -22.7307 -9.7205 -3.6301 9.1073 67.9425 93.0672 0.0000 19.7733 11.5376 15.6491 -37.1175 32.8623 0.0000 -24.3270 -20.9524 1.5347 33.2925 -52.1638 -4.5663 -78.0961 -88.2145 -0.0000 25.2317 0.5628 5.7451 -5.6041 33.1476 -0.0000 26.2537 -3.3249 -14.2690 -7.6857
 0.4464 29.1089 7.6257 -5.5565 53.0278 -4.5526 -73.9083 -14.8308 32.4185 56.5244 0.0000 0.0000 14.9161 16.0906 33.2230 12.8837 -0.0000 0.0000 -30.0695 -19.0135 -9.8209 67.8726 -0.0000 -0.0000 -32.3268 1.7650 0.9755 2.1298 -0.0000 0.0000 34.5979 -26.0449 13.5838 21.9890 -22.8207 -9.8162 -3.4050 10.6299 68.7026 94.1630 0.0000 19.5252 11.2537 15.3985 -36.8465 32.8623 0.0000 -24.3270 -20.7238 1.3480 32.5242 -51.1980 -5.6251 -80.9951 -90.1688 -0.0000 26.6419 0.6480 5.9581 -6.2186 33.1476 -0.0000 26.2537 -2.8140 -14.1471 -7.0311
 0.5260 29.2130 7.7702 -4.9287 55.8275 -4.4534 -73.8885 -13.9547 32.6736 56.5431 -0.0000 0.0000 15.3766 16.6603 33.3644 13.2478 -0.0000 0.0000 -30.2149 -18.8653 -10.3650 67.1022 -0.0000 -0.0000 -31.6142 0.8090 1.0731 1.5860 -0.0000 0.0000 33.9493 -28.1930 13.9992 22.1095 -22.9449 -9.9871 -3.2451 12.1925 69.4571 95.2056 0.0000 19.1651 11.3390 15.5841 -36.7384 32.8623 0.0000 -24.3270 -20.5930 1.3189 31.6337 -50.3254 -6.8435 -83.8343 -91.6384 -0.0000 27.6826 0.6910 5.9004 -6.6920 33.1476 -0.0000 26.2537 -2.4603 -14.0838 -6.6145
 0.6059 29.3359 7.9268 -4.4358 58.8635 -4.4321 -73.6478 -13.1939 32.6406 56.3746 -0.0000 -0.0000 15.6089 17.2089 32.9526 12.9591 -0.0000 0.0000 -30.1108 -18.5878 -10.6200 66.2630 -0.0000 0.0000 -30.9309 -0.1475 1.2087 1.3043 -0.0000 -0.0000 33.5459 -30.2421 14.6445 22.1991 -23.0967 -10.1081 -3.2146 13.6029 70.2026 96.1985 0.0000 19.0524 11.0499 15.3351 -36.4428 32.8623 0.0000 -24.3270 -20.1783 1.5691 30.7873 -49.9840 -7.9312 -86.9184 -92.6270 -0.0000 28.6432 0.7083 5.5802 -7.2453 33.1476 -0.0000 26.2537 -2.1533 -14.1335 -6.2419
 0.6943 29.4668 8.0692 -4.0510 61.9283 -4.3720 -73.2786 -12.4712 32.3888 56.1506 0.0000 0.0000 15.9140 17.5555 32.7649 12.6158 0.0000 -0.0000 -29.7962 -17.9084 -10.6704 65.3277 -0.0000 0.0000 -30.2041 -1.1537 1.4557 0.9725 -0.0000 0.0000 33.2634 -32.0354 15.3818 22.0511 -23.2715 -10.3940 -3.2400 14.6124 71.1874 97.0983 0.0000 19.2529 11.1098 15.6445 -36.0618 32.8623 0.0000 -24.3270 -20.0076 1.5720 29.8975 -49.2598 -9.0605 -89.6974 -93.4599 -0.0000 29.0693 0.6968 5.2806 -7.5280 33.1476 -0.0000 26.2537 -2.0323 -14.3982 -6.1297
 0.7832 29.6068 8.1976 -3.6972 64.9990 -4.3717 -72.8267 -11.7581 31.9427 55.8262 0.0000 0.0000 16.2346 17.7993 32.6165 12.5054 -0.0000 -0.0000 -29.3315 -16.8707 -10.5243 64.3814 0.0000 -0.0000 -29.4643 -1.8801 1.7323 0.5319 0.0000 -0.0000 33.0824 -33.4180 16.1810 21.9348 -23.6750 -10.5398 -3.4461 15.5779 72.0871 97.9474 0.0000 19.3930 11.0910 16.1212 -35.2212 32.8623 0.0000 -24.3270 -19.8717 1.4897 29.0526 -48.6135 -10.3600 -92.3182 -94.1270 -0.0000 29.3401 0.6620 5.0971 -7.4096 33.1476 -0.0000 26.2537 -2.2237 -14.9117 -6.0669
 0.8738 29.7515 8.3186 -3.1834 68.0447 -4.5341 -72.3690 -11.0420 31.3404 55.4805 -0.0000 -0.0000 16.5243 17.9740 32.3730 12.6127 -0.0000 0.0000 -28.8145 -15.5170 -10.2625 63.3815 -0.0000 -0.0000 -28.5913 -2.6290 2.0075 -0.3848 0.0000 -0.0000 32.7568 -34.6425 16.9118 21.7447 -24.0021 -10.7692 -3.6352 16.4268 72.9895 98.6843 0.0000 19.7230 10.8861 15.9587 -34.9719 32.8623 0.0000 -24.3270 -19.5173 1.6392 28.1914 -48.3426 -11.7713 -94.8263 -94.4967 -0.0000 29.3473 0.6459 5.0232 -7.3365 33.1476 -0.0000 26.2537 -2.3344 -15.5844 -6.2024
 0.9688 29.9042 8.4418 -2.7809 71.0883 -4.6979 -71.8172 -10.3278 30.6368 55.0679 -0.0000 0.0000 16.9110 18.1480 32.0450 12.3246 -0.0000 -0.0000 -28.1458 -14.0268 -9.8537 62.4374 0.0000 -0.0000 -27.6885 -3.4006 2.3497 -1.1488 0.0000 -0.0000 32.5143 -35.6621 17.6892 21.5286 -24.2739 -10.9997 -3.8882 17.2511 73.8500 99.3211 0.0000 19.8451 10.7701 15.4956 -35.4505 32.8623 0.0000 -24.3270 -19.0641 1.9593 27.3663 -48.2805 -13.2559 -97.1800 -94.7060 -0.0000 29.4611 0.6264 4.7721 -7.4867 33.1476 -0.0000 26.2537 -2.5646 -16.2510 -6.4091
